# xmcd CD database file
#
# Track frame offsets:
#	150
#	15927
#	29810
#	43297
#	58107
#	70860
#	87715
#	103832
#	124145
#	141390
#	156500
#	173405
#	190062
#	205515
#	219820
#	236677
#	250337
#	268922
#	286965
#
# Disc length: 4056 seconds
#
# Revision: 0
# Processed by: cddbd v1.5.2PL0 Copyright (c) Steve Scherf et al.
# Submitted via: CDex 1.70beta2
#
DISCID=200fd613
DTITLE=Jones Country - Jones Country Recurrent CHC-1189
DYEAR=0000
DGENRE=Country
TTITLE0=Chad Brock/Yes! [album version]
TTITLE1=Brooks and Dunn/You'll Always Be Loved By Me
TTITLE2=Joe Diffie/It's Always Somethin'
TTITLE3=Eric Heatherly/Flowers On The Wall
TTITLE4=Alan Jackson/It Must Be Love
TTITLE5=Toby Keith/Country Comes To Town [album version]
TTITLE6=Lonestar/What About Now [single version]
TTITLE7=Rebe McEntire/I'll Be
TTITLE8=Tim McGraw/Some Things Never Change
TTITLE9=Jo Dee Messina/That's The Way [album version]
TTITLE10=Rascal Flatts/Prayin' For Daylight
TTITLE11=Collin Raye/Couldn't Last A Moment [remix]
TTITLE12=LeAnn Rimes/I Need You [country mix]
TTITLE13=Kenny Rogers/Greatest
TTITLE14=Shedaisy/I Will,.. But
TTITLE15=Aaron Tippin/Kiss This [album version]
TTITLE16=Keith Urban/Your Everything
TTITLE17=Clay Walker/Chain Of Love
TTITLE18=Lee Ann Womack and Sons Of The Desert/I Hope You Dance [single version]
EXTD=YEAR: 0000
EXTT0=
EXTT1=
EXTT2=
EXTT3=
EXTT4=
EXTT5=
EXTT6=
EXTT7=
EXTT8=
EXTT9=
EXTT10=
EXTT11=
EXTT12=
EXTT13=
EXTT14=
EXTT15=
EXTT16=
EXTT17=
EXTT18=
PLAYORDER=
